Coordinates
version=1
nRows=17
nColumns=40
inDegrees=yes

Units are S.I. units (second, meters, Newtons, ...)
Angles are in degrees.

endheader
time	pelvis_tilt	pelvis_list	pelvis_rotation	pelvis_tx	pelvis_ty	pelvis_tz	hip_flexion_r	hip_adduction_r	hip_rotation_r	knee_angle_r	knee_angle_r_beta	ankle_angle_r	subtalar_angle_r	mtp_angle_r	hip_flexion_l	hip_adduction_l	hip_rotation_l	knee_angle_l	knee_angle_l_beta	ankle_angle_l	subtalar_angle_l	mtp_angle_l	lumbar_extension	lumbar_bending	lumbar_rotation	arm_flex_r	arm_add_r	arm_rot_r	elbow_flex_r	pro_sup_r	wrist_flex_r	wrist_dev_r	arm_flex_l	arm_add_l	arm_rot_l	elbow_flex_l	pro_sup_l	wrist_flex_l	wrist_dev_l
     16.07000000	     -4.52999352	     -7.05692807	      2.44563841	      1.03619847	      0.93260134	      0.50840695	     11.39033554	      5.91301854	    -22.16070321	      9.67262859	      9.67262859	      4.63854398	      5.49652872	     -4.79776981	     35.56422267	    -15.45445583	      3.93752881	     75.75713383	     75.75713383	      1.97965988	    -17.05308907	      5.71240949	    -11.98578805	      6.47956219	      4.10593695	     20.01386123	    -15.76453291	     -4.02719928	     61.45926039	     45.30026365	      0.00000000	      0.00000000	      5.24967911	     -9.13609111	     -0.63856890	     50.38661501	     45.93015138	      0.00000000	      0.00000000
     16.08107143	     -4.65632216	     -7.14009087	      2.33813919	      1.03454791	      0.93281809	      0.50937826	     10.87971984	      6.16639986	    -22.10548013	      9.29061592	      9.29061592	      4.82382372	      5.86690385	     -4.88565069	     37.30073661	    -15.45436223	      4.00232149	     75.02257334	     75.02257334	      2.42119279	    -16.98945000	      5.51619651	    -12.11510810	      6.52411644	      3.92856928	     22.78919769	    -15.61112059	     -4.08404343	     63.49931276	     45.24741968	      0.00000000	      0.00000000	      3.57020199	     -9.16490664	     -0.36612429	     48.46146567	     45.88312753	      0.00000000	      0.00000000
     16.09214286	     -4.72054556	     -7.21278232	      2.21331528	      1.03297689	      0.93309589	      0.51029472	     10.26855794	      6.41480260	    -22.10641020	      8.84837374	      8.84837374	      5.03641610	      6.40510633	     -4.88667709	     38.80093792	    -15.46489810	      3.99644369	     74.05040960	     74.05040960	      2.76515397	    -16.95535267	      5.34748878	    -12.31075972	      6.58636147	      4.39402624	     24.95716005	    -16.28623521	     -3.44164668	     66.40028510	     45.14807539	      0.00000000	      0.00000000	      3.04980122	     -8.76501173	      0.02228248	     44.49378108	     45.85988723	      0.00000000	      0.00000000
     16.10321429	     -4.81550569	     -7.27217814	      2.09333928	      1.03142580	      0.93321016	      0.51115514	      9.74201646	      6.63443579	    -21.97821630	      8.49068544	      8.49068544	      5.26857997	      6.68161152	     -4.83222328	     40.19321634	    -15.44315818	      3.97695304	     72.85120781	     72.85120781	      3.12748516	    -16.94181761	      5.46496601	    -12.48843251	      6.59700168	      4.33472802	     27.67828410	    -16.07181456	     -3.63363525	     68.40380104	     45.10377448	      0.00000000	      0.00000000	      1.52075471	     -8.73671415	      0.33486779	     42.70638976	     45.81044823	      0.00000000	      0.00000000
     16.11428571	     -4.89330080	     -7.34133732	      1.97517718	      1.02994763	      0.93323633	      0.51189693	      9.18005123	      6.86131523	    -21.89347464	      8.10003404	      8.10003404	      5.53154147	      7.04595611	     -4.75536069	     41.40965264	    -15.41774644	      3.95196556	     71.38057610	     71.38057610	      3.45611072	    -16.94557312	      5.80179775	    -12.67542307	      6.65088661	      4.30951470	     30.29799893	    -15.92918573	     -3.61047026	     70.47884606	     45.05009174	      0.00000000	      0.00000000	      0.24625999	     -8.63028650	      0.72422596	     40.47226997	     45.75270156	      0.00000000	      0.00000000
     16.12535714	     -5.07665721	     -7.38847169	      1.78723470	      1.02845346	      0.93296741	      0.51255628	      8.84952142	      7.01191915	    -21.70463838	      7.94318743	      7.94318743	      5.83185557	      7.23907914	     -4.81834610	     42.54584421	    -15.44065782	      3.79702895	     69.59406719	     69.59406719	      3.72108223	    -16.90329969	      6.03442707	    -12.69913340	      6.61290754	      4.91785249	     32.71835903	    -16.37541612	     -3.85228092	     71.63120963	     45.03248167	      0.00000000	      0.00000000	     -1.06854976	     -8.42065438	      0.89522778	     39.47978730	     45.71463189	      0.00000000	      0.00000000
     16.13642857	     -5.13189995	     -7.47593977	      1.73999908	      1.02717500	      0.93279357	      0.51294543	      8.18786723	      7.25081516	    -21.74292456	      7.41748964	      7.41748964	      6.10954980	      7.76804933	     -4.68123412	     43.39243178	    -15.35232389	      3.83011878	     67.48584564	     67.48584564	      4.03352133	    -16.95588063	      6.76257975	    -12.87356575	      6.71161478	      4.43103526	     35.21841697	    -15.74851867	     -3.38264210	     74.35882149	     44.94341879	      0.00000000	      0.00000000	     -2.15051839	     -8.32491288	      1.54172553	     36.42075099	     45.62399745	      0.00000000	      0.00000000
     16.14750000	     -5.29134549	     -7.54585925	      1.61386119	      1.02583408	      0.93233706	      0.51321477	      7.74089881	      7.41430120	    -21.71292949	      7.10802714	      7.10802714	      6.44391976	      8.20215793	     -4.62808870	     44.12910620	    -15.28341731	      3.78605749	     65.01892921	     65.01892921	      4.38589153	    -16.91200704	      7.45553076	    -12.92781278	      6.78212841	      4.66649458	     37.45663336	    -15.84746095	     -3.14447514	     76.47333143	     44.88483977	      0.00000000	      0.00000000	     -3.00892864	     -8.10411725	      2.14688567	     34.15600099	     45.54077470	      0.00000000	      0.00000000
     16.15857143	     -5.56299694	     -7.60022882	      1.44558423	      1.02454593	      0.93153777	      0.51335286	      7.46153915	      7.53937528	    -21.49087319	      6.90716632	      6.90716632	      6.87314070	      8.41180326	     -4.75399847	     44.79419956	    -15.23640798	      3.67792901	     62.24335218	     62.24335218	      4.56620769	    -16.68364315	      7.83789818	    -12.76378465	      6.78292475	      5.14801783	     39.78198891	    -16.17872681	     -3.36219258	     77.65556046	     44.86561197	      0.00000000	      0.00000000	     -4.27503442	     -7.87865001	      2.33440011	     33.35313673	     45.49806195	      0.00000000	      0.00000000
     16.16964286	     -5.67831390	     -7.67737958	      1.38416551	      1.02354159	      0.93095405	      0.51325652	      6.85053809	      7.72168703	    -21.55543877	      6.40838222	      6.40838222	      7.13820877	      8.93089759	     -4.74227636	     45.01130456	    -15.05027062	      3.76764152	     59.05467452	     59.05467452	      4.87629610	    -16.61928578	      8.34319794	    -12.85897360	      6.85750583	      4.74996410	     41.88177815	    -15.51021717	     -2.96698290	     80.20419891	     44.78549201	      0.00000000	      0.00000000	     -5.54790720	     -7.76883333	      2.94871479	     31.62500619	     45.39995784	      0.00000000	      0.00000000
     16.18071429	     -5.88844775	     -7.74471189	      1.27845379	      1.02257304	      0.93012103	      0.51301263	      6.37881808	      7.86456721	    -21.52322790	      6.00734300	      6.00734300	      7.49456787	      9.38637088	     -4.81642641	     45.13140006	    -14.90844479	      3.78439792	     55.60398565	     55.60398565	      5.14537116	    -16.22156234	      8.74682717	    -12.76509299	      6.91699777	      4.79347809	     43.87099438	    -15.37341079	     -2.76777617	     82.20233932	     44.73051060	      0.00000000	      0.00000000	     -6.75958299	     -7.60224304	      3.48975439	     30.45676334	     45.30907700	      0.00000000	      0.00000000
     16.19178571	     -6.22317345	     -7.82894584	      1.14137664	      1.02168053	      0.92893366	      0.51268476	      6.07388013	      8.00370816	    -21.39839885	      5.68842655	      5.68842655	      7.87705667	      9.66588429	     -4.94945953	     45.19034039	    -14.79149392	      3.81321551	     51.94506856	     51.94506856	      5.47646381	    -15.56855697	      9.11398699	    -12.47562006	      6.95227404	      5.02212229	     45.86798809	    -15.42756175	     -2.81191620	     83.58136006	     44.69957040	      0.00000000	      0.00000000	     -8.01717623	     -7.40638160	      3.76686645	     29.78532745	     45.25075126	      0.00000000	      0.00000000
     16.20285714	     -6.39860653	     -7.95834171	      1.06743681	      1.02115746	      0.92791871	      0.51213439	      5.44494717	      8.20869713	    -21.59303789	      5.12480561	      5.12480561	      8.23278769	     10.54158573	     -4.99273537	     44.84199852	    -14.66291196	      3.93013921	     48.05865328	     48.05865328	      5.68614987	    -14.91604809	      9.21360569	    -12.42436106	      7.11653152	      5.29197982	     47.14794433	    -15.80330300	     -2.29636543	     87.17648127	     44.62598397	      0.00000000	      0.00000000	     -9.04821406	     -7.52291119	      6.22505568	     28.69128492	     44.89047053	      0.00000000	      0.00000000
     16.21392857	     -6.60052884	     -8.06470485	      0.97216284	      1.02080243	      0.92678315	      0.51148999	      4.86774300	      8.39122255	    -21.41363012	      4.62950147	      4.62950147	      8.57244103	     10.79702094	     -5.10369353	     44.34352116	    -14.53709729	      3.99946645	     44.11921320	     44.11921320	      6.08283284	    -13.99964659	      9.77571250	    -12.22022840	      7.20058389	      5.09044129	     48.84866486	    -15.21932209	     -2.29013470	     88.75525768	     44.60258481	      0.00000000	      0.00000000	    -10.57941346	     -7.39465570	      7.00653876	     28.36750422	     44.76064214	      0.00000000	      0.00000000
     16.22500000	     -6.78519885	     -8.20410743	      0.87206477	      1.02066187	      0.92550659	      0.51074554	      4.29036322	      8.58816597	    -21.24130476	      4.20234201	      4.20234201	      8.94287237	     11.07360274	     -5.25840153	     43.70078313	    -14.46500732	      4.02192999	     40.24490592	     40.24490592	      6.49434361	    -13.00684682	     10.48659348	    -12.03422353	      7.32372229	      4.93542590	     50.42171539	    -14.84969745	     -2.12465955	     90.42988633	     44.56395612	      0.00000000	      0.00000000	    -12.01574712	     -7.23886724	      7.53953657	     28.12028292	     44.66592434	      0.00000000	      0.00000000
     16.23607143	     -6.99261384	     -8.32199310	      0.72051000	      1.02076199	      0.92413738	      0.50989778	      3.78530427	      8.72285050	    -21.00154844	      3.91513191	      3.91513191	      9.37190335	     11.24623038	     -5.44084293	     42.93311077	    -14.42401954	      3.88079949	     36.49009593	     36.49009593	      6.82733080	    -12.00148241	     11.20564816	    -11.73639798	      7.39840967	      4.99419253	     51.86523904	    -14.70238790	     -2.07326548	     91.63926516	     44.53537977	      0.00000000	      0.00000000	    -13.31522101	     -7.07126896	      7.78432258	     27.83835434	     44.61142159	      0.00000000	      0.00000000
     16.24714286	     -7.07775610	     -8.44678460	      0.61346699	      1.02120509	      0.92279051	      0.50887235	      3.10673256	      8.86448575	    -20.72666218	      3.59021492	      3.59021492	      9.82012016	     11.40450940	     -5.60068662	     42.01230759	    -14.39508734	      3.59542893	     33.08236735	     33.08236735	      7.11948162	    -11.09342173	     12.10875512	    -11.55478751	      7.52354755	      4.80097706	     53.06636308	    -14.33884392	     -1.83099592	     93.26764483	     44.48834979	      0.00000000	      0.00000000	    -14.65535607	     -6.88322769	      8.09511412	     27.67038449	     44.54635675	      0.00000000	      0.00000000
